<?xml version="1.0" encoding="UTF-8" standalone="no"?><!DOCTYPE svg PUBLIC "-//W3C//DTD SVG 1.1//EN" "http://www.w3.org/Graphics/SVG/1.1/DTD/svg11.dtd"><svg width="100%" height="100%" viewBox="0 0 652 392" version="1.1" xmlns="http://www.w3.org/2000/svg" xmlns:xlink="http://www.w3.org/1999/xlink" xml:space="preserve" xmlns:serif="http://www.serif.com/" style="fill-rule:evenodd;clip-rule:evenodd;stroke-linejoin:round;stroke-miterlimit:1.41421;"><g><g id="Screen_1_"><g><path d="M512.86,17.924l0,173.49c0,9.262 -8.414,16.782 -18.775,16.782l-287.021,0c-10.362,0 -18.776,-7.52 -18.776,-16.782l0,-173.49c0,-9.262 8.414,-16.783 18.776,-16.783l287.021,0c10.361,0 18.775,7.521 18.775,16.783Z" style="fill:#fff;fill-rule:nonzero;"/><path d="M494.085,208.937l-287.021,0c-10.818,0 -19.605,-7.854 -19.605,-17.523l0,-173.49c0,-9.67 8.787,-17.524 19.605,-17.524l287.021,0c10.817,0 19.604,7.854 19.604,17.524l0,173.49c0,9.669 -8.787,17.523 -19.604,17.523Zm-286.98,-207.055c-9.906,0 -17.947,7.187 -17.947,16.042l0,173.49c0,8.854 8.041,16.041 17.947,16.041l287.021,0c9.906,0 17.947,-7.187 17.947,-16.041l0,-173.49c0,-8.855 -8.041,-16.042 -17.947,-16.042l-287.021,0Z" style="fill:#1b355f;fill-rule:nonzero;"/></g><path d="M512.86,19.487l0,11.944l-324.531,0l0,-11.944c0,-10.088 8.414,-18.28 18.776,-18.28l287.021,0c10.32,0 18.734,8.192 18.734,18.28Z" style="fill:#1b355f;fill-rule:nonzero;"/><ellipse cx="214.441" cy="16.501" rx="3.73" ry="3.632" style="fill:#fff;"/><ellipse cx="228.533" cy="16.501" rx="3.73" ry="3.632" style="fill:#fff;"/><ellipse cx="242.625" cy="16.501" rx="3.73" ry="3.632" style="fill:#fff;"/></g><g id="_x31_0_" serif:id="_x31_0"><g id="Environment_7_"><path d="M539.42,47.031c-3.421,0 -6.22,-2.799 -6.22,-6.22c0,-3.421 2.799,-6.22 6.22,-6.22c3.421,0 6.221,2.799 6.221,6.22c0,3.421 -2.8,6.22 -6.221,6.22Zm0,-10.663c-2.444,0 -4.443,1.999 -4.443,4.443c0,2.444 1.999,4.443 4.443,4.443c2.444,0 4.443,-1.999 4.443,-4.443c0,-2.444 -1.999,-4.443 -4.443,-4.443Z" style="fill-rule:nonzero;"/><path d="M6.557,153.678c-3.422,0 -6.221,-2.799 -6.221,-6.22c0,-3.422 2.799,-6.221 6.221,-6.221c3.421,0 6.22,2.799 6.22,6.221c0,3.421 -2.799,6.22 -6.22,6.22Zm0,-10.663c-2.444,0 -4.443,1.999 -4.443,4.443c0,2.443 1.999,4.443 4.443,4.443c2.443,0 4.443,-2 4.443,-4.443c0,-2.444 -2,-4.443 -4.443,-4.443Z" style="fill-rule:nonzero;"/><path d="M28.237,286.021c-0.488,0 -0.755,-0.045 -0.799,-0.045l0.222,-1.777c0.311,0.045 7.509,0.756 9.375,-7.02c2.266,-9.464 11.33,-7.42 11.419,-7.376l-0.4,1.733l0.222,-0.844l-0.222,0.844c-0.311,-0.089 -7.465,-1.644 -9.287,6.087c-1.821,7.687 -8.264,8.398 -10.53,8.398Z" style="fill-rule:nonzero;"/><path d="M550.482,138.223c-0.489,0 -0.756,-0.045 -0.8,-0.045l0.222,-1.777c0.311,0.044 7.509,0.755 9.375,-7.02c2.266,-9.464 11.33,-7.42 11.419,-7.376l-0.4,1.733l0.222,-0.844l-0.222,0.844c-0.311,-0.089 -7.464,-1.644 -9.286,6.087c-1.822,7.687 -8.264,8.398 -10.53,8.398Z" style="fill-rule:nonzero;"/></g><g id="Plant_19_"><path d="M561.012,335.438c0.729,-3.103 3.84,-5.031 6.944,-4.302c3.103,0.729 5.031,3.841 4.302,6.944c-0.729,3.103 -3.841,5.031 -6.944,4.302c-3.104,-0.729 -5.031,-3.841 -4.302,-6.944Z" style="fill:#1b355f;"/><path d="M584.073,390.168c-16.351,-10.753 -19.994,-40.21 -20.172,-41.455l2.222,-0.266c0.044,0.311 3.687,29.68 19.15,39.855l-1.2,1.866Z" style="fill:#1b355f;fill-rule:nonzero;"/><path d="M557.503,336.228c0,0 9.775,-2.488 17.817,2.311c0,0 -0.622,13.285 -9.686,12.129c-10.308,-1.288 -8.131,-14.44 -8.131,-14.44Z" style="fill:#004dff;fill-rule:nonzero;"/><path d="M575.587,379.504c0,0 -3.333,-8.353 -1.289,-13.951c2.044,-5.598 6.087,-6.531 7.42,-5.821c1.333,0.711 3.688,2 1.377,7.154c-2.354,5.154 -7.508,12.618 -7.508,12.618Z" style="fill:#1b355f;fill-rule:nonzero;"/><g><path d="M598.469,345.47c0,0 2.888,-6.043 0,-13.863c-2.888,-7.819 -4.888,-31.99 12.396,-30.835c17.284,1.155 18.439,24.215 16.706,36.034c-1.733,11.819 0.844,19.905 3.732,26.525c2.888,6.621 12.13,11.553 10.664,26.259l-58.561,0c0.089,0 -2.799,-23.371 15.063,-44.12Z" style="fill:#fafbfd;fill-rule:nonzero;"/><path d="M642.856,390.479l-60.116,0l-0.089,-0.8c-0.044,-0.222 -2.71,-23.904 15.107,-44.698c0.355,-0.8 2.443,-6.265 -0.089,-13.063c-2.133,-5.776 -3.821,-19.683 1.822,-27.236c2.621,-3.554 6.487,-5.154 11.463,-4.843c4.932,0.311 8.975,2.399 11.996,6.132c6.31,7.775 6.932,21.549 5.554,30.924c-1.688,11.552 0.756,19.327 3.688,26.036c0.8,1.867 2.222,3.644 3.688,5.554c3.599,4.666 8.131,10.442 7.064,21.15l-0.088,0.844Zm-58.561,-1.777l56.917,0c0.71,-9.464 -3.288,-14.574 -6.754,-19.061c-1.555,-2 -3.021,-3.866 -3.91,-5.91c-2.888,-6.62 -5.554,-14.973 -3.821,-27.014c1.333,-9.064 0.755,-22.216 -5.154,-29.547c-2.71,-3.332 -6.309,-5.198 -10.752,-5.465c-4.355,-0.266 -7.687,1.111 -9.909,4.132c-5.154,6.887 -3.554,20.261 -1.599,25.548c2.977,8.042 0.089,14.263 -0.045,14.529l-0.044,0.089l-0.089,0.089c-15.551,18.084 -15.107,38.433 -14.84,42.61Z" style="fill:#1b355f;fill-rule:nonzero;"/></g><g><path d="M611.043,300.639c0,0 11.241,28.258 0,88.818" style="fill:#fafbfd;fill-rule:nonzero;"/><path d="M611.887,389.59l-1.733,-0.311c11.063,-59.627 0.178,-88.063 0.045,-88.329l1.643,-0.667c0.134,0.311 2.889,7.332 4.266,21.949c1.333,13.419 1.644,35.99 -4.221,67.358Z" style="fill:#1b355f;fill-rule:nonzero;"/></g><g><path d="M626.194,314.146l-10.619,12.174" style="fill:none;fill-rule:nonzero;"/><path d="M625.531,313.512l-10.598,12.158l1.34,1.167l10.598,-12.157l-1.34,-1.168Z" style="fill:#1b355f;"/></g><g><path d="M627.882,322.232l-11.863,13.463" style="fill:none;fill-rule:nonzero;"/><path d="M627.265,321.554l-11.849,13.485l1.335,1.173l11.849,-13.484l-1.335,-1.174Z" style="fill:#1b355f;"/></g><g><path d="M596.247,348.225l17.728,22.438" style="fill:none;fill-rule:nonzero;"/><path d="M596.973,347.795l-1.395,1.101l17.72,22.467l1.396,-1.1l-17.721,-22.468Z" style="fill:#1b355f;"/></g><g><path d="M592.604,353.468l20.26,25.059" style="fill:none;fill-rule:nonzero;"/><path d="M593.324,353.003l-1.383,1.116l20.236,25.065l1.383,-1.117l-20.236,-25.064Z" style="fill:#1b355f;"/></g></g><g id="Plant_18_"><path d="M181.686,328.481c1.1,-2.676 4.166,-3.956 6.843,-2.856c2.676,1.1 3.956,4.166 2.855,6.843c-1.1,2.676 -4.166,3.955 -6.842,2.855c-2.676,-1.1 -3.956,-4.166 -2.856,-6.842Z" style="fill:#1b355f;"/><path d="M185.08,351.246c0,0 -11.019,-3.51 -11.641,-6.754c-0.667,-3.243 4.887,-3.598 9.375,2.755c0.622,0.889 2.266,3.999 2.266,3.999Z" style="fill:#1b355f;fill-rule:nonzero;"/><path d="M186.146,358.044c0,0 -11.508,-1.155 -12.796,-4.221c-1.289,-3.066 4.043,-4.532 9.73,0.711c0.845,0.755 3.066,3.51 3.066,3.51Z" style="fill:#1b355f;fill-rule:nonzero;"/><path d="M205.429,391.145c-12.618,-9.286 -18.35,-22.304 -20.927,-31.59c-2.799,-10.042 -2.621,-17.817 -2.621,-18.128l2.221,0.044c0,0.311 -0.533,30.88 22.616,47.897l-1.289,1.777Z" style="fill:#1b355f;fill-rule:nonzero;"/><path d="M178.504,328.631c0,0 8.753,-1.2 15.684,4.62c0,0 -2.444,11.819 -10.441,9.509c-9.109,-2.666 -5.243,-14.129 -5.243,-14.129Z" style="fill:#004dff;fill-rule:nonzero;"/><g><path d="M299.713,388.968c0,0 2.932,-13.285 -4.444,-26.214c0,0 -4.043,-12.574 2.577,-23.993c6.621,-11.419 0,-24.393 -7.775,-26.215c-7.776,-1.866 -16.973,4.444 -19.194,13.285c-2.222,8.842 -0.356,15.151 -13.685,21.772c-13.285,6.664 -12.752,41.365 -12.752,41.365l55.273,0Z" style="fill:#fafbfd;fill-rule:nonzero;"/><path d="M300.423,389.857l-56.827,0l0,-0.889c-0.045,-1.422 -0.4,-35.367 13.24,-42.165c10.308,-5.154 11.108,-9.819 12.219,-16.262c0.267,-1.555 0.533,-3.199 0.977,-4.932c2.311,-9.286 11.997,-15.906 20.261,-13.951c3.866,0.933 7.509,4.398 9.508,9.064c2.577,5.998 2.133,12.707 -1.199,18.439c-6.087,10.486 -2.844,22.127 -2.533,23.193c7.42,13.063 4.621,26.214 4.488,26.748l-0.134,0.755Zm-55.05,-1.777l53.584,0c0.445,-2.844 1.733,-14.085 -4.443,-24.882l-0.089,-0.178c-0.177,-0.533 -4.087,-13.062 2.666,-24.703c3.066,-5.243 3.466,-11.375 1.111,-16.84c-1.777,-4.176 -4.976,-7.242 -8.309,-8.042c-7.375,-1.777 -16.039,4.265 -18.128,12.663c-0.4,1.688 -0.711,3.288 -0.977,4.799c-1.111,6.442 -2.044,11.996 -13.152,17.55c-11.508,5.687 -12.218,34.256 -12.263,39.633Z" style="fill:#1b355f;fill-rule:nonzero;"/></g><path d="M271.721,389.501l-1.6,-0.755c10.886,-23.815 19.061,-76.244 19.15,-76.777l1.777,0.266c-0.177,0.578 -8.353,53.273 -19.327,77.266Z" style="fill:#1b355f;fill-rule:nonzero;"/><circle cx="328.904" cy="341.604" r="5.776" style="fill:#1b355f;"/><path d="M299.713,389.635l-0.756,-2.089c17.417,-6.398 27.681,-34.123 27.77,-34.434l2.088,0.755c-0.444,1.2 -10.752,29.014 -29.102,35.768Z" style="fill:#1b355f;fill-rule:nonzero;"/><path d="M275.559,318.066l-1.665,0.622l9.442,25.309l1.665,-0.621l-9.442,-25.31Z" style="fill:#1b355f;"/><path d="M270.803,330.414l-1.653,0.653l10.92,27.6l1.652,-0.654l-10.919,-27.599Z" style="fill:#1b355f;"/><path d="M337.879,343.16c0,0 -8.975,-4.666 -17.861,-1.867c0,0 -2.444,13.063 6.664,14.041c10.308,1.111 11.197,-12.174 11.197,-12.174Z" style="fill:#004dff;fill-rule:nonzero;"/><circle cx="351.964" cy="337.517" r="5.243" style="fill:#1b355f;"/><path d="M310.421,381.193c0,0 5.154,-7.376 4.443,-13.285c-0.756,-5.91 -4.443,-7.776 -5.91,-7.376c-1.466,0.356 -4.043,1.111 -2.932,6.665c1.111,5.554 4.399,13.996 4.399,13.996Z" style="fill:#1b355f;fill-rule:nonzero;"/><path d="M297.54,368.348l-27.396,20.118l1.052,1.433l27.396,-20.119l-1.052,-1.432Z" style="fill:#1b355f;"/><path d="M299.573,376.695l-16.171,11.609l1.037,1.444l16.171,-11.609l-1.037,-1.444Z" style="fill:#1b355f;"/><g><path d="M222.313,332.629c0,0 3.688,-7.775 0,-17.728c-3.688,-9.952 -6.265,-41.01 15.862,-39.499c22.171,1.466 23.638,31.013 21.416,46.164c-2.221,15.151 1.111,25.459 4.799,33.99c3.687,8.486 15.506,14.751 13.685,33.59l-74.956,0c0,0 -3.688,-29.902 19.194,-56.517Z" style="fill:#fafbfd;fill-rule:nonzero;"/><path d="M278.919,390.035l-76.555,0l-0.089,-0.8c-0.045,-0.311 -0.933,-7.731 1.022,-18.528c1.777,-9.953 6.398,-24.704 18.305,-38.522c0.4,-0.933 3.199,-8.042 -0.089,-16.928c-2.621,-7.109 -4.754,-25.193 2.311,-34.612c3.332,-4.443 8.175,-6.487 14.484,-6.087c6.265,0.399 11.375,3.021 15.196,7.775c7.998,9.908 8.797,27.414 7.065,39.411c-2.178,14.84 0.977,24.881 4.754,33.501c1.066,2.399 2.843,4.71 4.754,7.153c4.621,5.91 10.352,13.285 9.019,26.881l-0.177,0.756Zm-74.956,-1.778l73.356,0c0.978,-12.396 -4.176,-18.972 -8.708,-24.837c-1.955,-2.532 -3.821,-4.932 -4.977,-7.553c-3.643,-8.442 -7.109,-19.106 -4.843,-34.479c1.689,-11.641 0.978,-28.569 -6.664,-38.033c-3.51,-4.31 -8.176,-6.709 -13.907,-7.109c-5.643,-0.355 -9.997,1.422 -12.93,5.376c-6.665,8.931 -4.576,26.126 -2.044,32.968c3.777,10.219 0.134,18.084 -0.044,18.395l-0.045,0.089l-0.088,0.089c-20.394,23.681 -19.506,50.251 -19.106,55.094Z" style="fill:#1b355f;fill-rule:nonzero;"/></g><path d="M345.388,357.378c0,0 11.508,0.933 13.374,-1.822c1.821,-2.755 -3.155,-5.199 -9.731,-1.022c-0.933,0.578 -3.643,2.844 -3.643,2.844Z" style="fill:#1b355f;fill-rule:nonzero;"/><path d="M341.833,363.243c0,0 11.064,3.287 13.463,0.977c2.355,-2.31 -1.999,-5.732 -9.286,-3.021c-1.066,0.355 -4.177,2.044 -4.177,2.044Z" style="fill:#1b355f;fill-rule:nonzero;"/><path d="M316.907,390.745l-1.377,-1.777c20.616,-15.906 34.346,-40.21 34.479,-40.432l1.955,1.066c-0.089,0.267 -14.041,24.926 -35.057,41.143Z" style="fill:#1b355f;fill-rule:nonzero;"/><path d="M239.286,389.102l-1.733,-0.311c7.42,-39.9 7.02,-68.558 5.421,-85.575c-1.777,-18.439 -5.332,-27.592 -5.332,-27.681l1.644,-0.666c0.133,0.355 3.688,9.375 5.465,28.036c1.6,17.195 1.999,46.075 -5.465,86.197Z" style="fill:#1b355f;fill-rule:nonzero;"/><path d="M257.143,291.922l-13.576,15.574l1.34,1.168l13.576,-15.574l-1.34,-1.168Z" style="fill:#1b355f;"/><path d="M360.095,338.939c0,0 -7.642,-4.444 -16.262,-1.689c0,0 -2.222,11.863 6.043,12.752c9.419,1.022 10.219,-11.063 10.219,-11.063Z" style="fill:#004dff;fill-rule:nonzero;"/><path d="M259.362,302.275l-15.164,17.256l1.336,1.173l15.163,-17.256l-1.335,-1.173Z" style="fill:#1b355f;"/><path d="M220.123,335.534l-1.395,1.101l22.673,28.744l1.396,-1.101l-22.674,-28.744Z" style="fill:#1b355f;"/><path d="M215.543,342.432l-1.383,1.117l25.93,32.117l1.383,-1.116l-25.93,-32.118Z" style="fill:#1b355f;"/></g><g id="Woman_9_"><g><path d="M53.792,365.639l-5.335,15.577l-14.526,-3.082l3.857,-12.495l16.004,0Z" style="fill:#fafbfd;fill-rule:nonzero;stroke:#1b355f;stroke-width:0.5px;"/><path d="M48.991,382.174l-16.086,-3.416l4.309,-13.952l17.768,0l-5.991,17.368Zm-13.993,-4.665l12.926,2.749l4.719,-13.786l-14.239,0l-3.406,11.037Z" style="fill:#1b355f;fill-rule:nonzero;"/></g><path d="M33.685,376.135c0,0 8.699,6.705 16.004,0l21.666,11.453c0.944,0.5 0.615,1.958 -0.493,1.958l-38.285,0c-1.19,0 -2.093,-1.166 -1.764,-2.333l2.872,-11.078Z" style="fill:#1b355f;fill-rule:nonzero;"/><g><path d="M119.448,365.639l-5.335,15.577l-14.526,-3.082l3.857,-12.495l16.004,0Z" style="fill:#fafbfd;fill-rule:nonzero;stroke:#1b355f;stroke-width:0.5px;"/><path d="M114.646,382.174l-16.085,-3.416l4.309,-13.952l17.768,0l-5.992,17.368Zm-13.992,-4.665l12.926,2.749l4.719,-13.786l-14.239,0l-3.406,11.037Z" style="fill:#1b355f;fill-rule:nonzero;"/></g><path d="M99.341,376.135c0,0 8.699,6.705 16.003,0l21.666,11.453c0.944,0.5 0.616,1.958 -0.492,1.958l-38.285,0c-1.19,0 -2.093,-1.166 -1.765,-2.333l2.873,-11.078Z" style="fill:#1b355f;fill-rule:nonzero;"/><g><path d="M127.322,110.641l-5.618,-17.811c0,0 17.815,-0.375 4.848,-34.088c0,0 -20.151,-0.783 -24.817,4.891c-4.665,5.674 -0.441,16.408 0.847,17.723l4.759,34.841l19.981,-5.556Z" style="fill:#fafbfd;fill-rule:nonzero;"/><path d="M106.546,117.383l21.99,-6.05l-5.59,-17.67c1.651,-0.326 4.634,-1.355 6.746,-4.565c4.016,-5.986 3.262,-16.277 -2.272,-30.675l-0.215,-0.594l-0.641,-0.021c-0.839,-0.031 -20.68,-0.727 -25.581,5.238c-4.713,5.683 -1.149,16.303 0.702,18.731l4.861,35.606Zm19.523,-7.377l-17.941,4.957l-4.658,-34.076l-0.245,-0.246c-1.034,-1.022 -5.108,-11.247 -0.784,-16.412c3.445,-4.159 17.498,-4.723 23.41,-4.565c6.329,16.691 4.751,24.599 2.289,28.27c-2.491,3.775 -6.339,3.896 -6.481,3.924l-1.264,0.053l0.384,1.199l5.29,16.896Z" style="fill:#1b355f;fill-rule:nonzero;"/></g><path d="M106.571,74.737l2.131,0.119l-0.004,-5.243c0,0 1.628,-2.429 1.45,-6.07c0,0 11.903,2.948 17.237,-2.564l1.562,4.691c0,0 2.352,-1.492 0.162,-7.383c0,0 5.943,-3.916 1.327,-9.182c-2.726,-3.139 -3.499,-0.095 -13.461,1.085c-1.915,0.23 -4.057,0.799 -7.005,-0.727c-2.947,-1.527 -9.82,0.906 -8.51,4.814c0,0 -10.513,2.611 -4.1,19.236c0,0 2.623,6.345 5.444,9.465l0.804,-4.373c0,0 -5.878,-5.703 -1.599,-8.115c4.279,-2.412 4.562,4.247 4.562,4.247Z" style="fill:#1b355f;fill-rule:nonzero;"/><g><path d="M165.016,121.873l14.46,7.229l35.244,-26.659l2.711,-9.489l17.171,-11.296c0,0 -1.356,5.874 -7.23,10.844c0,0 5.874,8.134 -4.519,12.652l-3.614,2.26l-32.85,36.012c-2.756,3.028 -7.185,3.977 -10.935,2.259l-15.86,-7.094l5.422,-16.718Z" style="fill:#fff;fill-rule:nonzero;stroke:#1b355f;stroke-width:0.5px;"/><path d="M179.34,147.448c-1.446,0 -2.892,-0.317 -4.293,-0.904l-16.583,-7.456l6.01,-18.48l14.911,7.455l34.567,-26.117l2.711,-9.534l19.339,-12.742l-0.497,2.214c-0.045,0.226 -1.4,5.829 -6.958,10.799c0.723,1.265 1.943,4.022 1.129,6.959c-0.723,2.666 -2.891,4.789 -6.371,6.326l-3.434,2.169l-32.759,35.922c-2.079,2.214 -4.88,3.389 -7.772,3.389Zm-18.616,-9.354l15.092,6.778c3.388,1.536 7.41,0.723 9.895,-2.078l32.94,-36.103l3.841,-2.395c3.027,-1.311 4.835,-3.073 5.422,-5.151c0.859,-3.118 -1.265,-6.1 -1.265,-6.146l-0.497,-0.677l0.633,-0.543c3.253,-2.756 5.06,-5.828 6.009,-7.907l-14.595,9.625l-2.711,9.443l-0.226,0.181l-35.696,26.976l-14.008,-7.004l-4.834,15.001Z" style="fill:#1b355f;fill-rule:nonzero;"/></g><g><path d="M68.32,142.658l-36.148,54.222l-12.652,8.586l-11.297,14.911c0,0 6.778,-1.356 15.363,-9.489c0,0 -2.711,6.778 0.452,9.489c0,0 4.971,-7.23 8.134,-12.2l50.607,-54.223l-14.459,-11.296Z" style="fill:#fafbfd;fill-rule:nonzero;stroke:#1b355f;stroke-width:0.5px;"/><path d="M6.055,221.732l12.832,-16.944l0.136,-0.091l12.516,-8.494l36.6,-54.9l15.996,12.516l-0.678,0.723l-50.562,54.177c-3.118,4.925 -8.043,12.064 -8.089,12.155l-0.587,0.813l-0.768,-0.633c-2.124,-1.807 -2.033,-5.015 -1.582,-7.41c-7.546,6.371 -13.194,7.591 -13.465,7.636l-2.349,0.452Zm19.881,-14.323l-1.536,3.795c-0.588,1.491 -1.672,5.422 -0.452,7.636c1.491,-2.168 5.015,-7.365 7.455,-11.206l0.091,-0.135l49.93,-53.499l-12.923,-10.077l-35.697,53.545l-12.697,8.585l-9.444,12.426c2.666,-1.13 7.14,-3.525 12.246,-8.359l3.027,-2.711Z" style="fill:#1b355f;fill-rule:nonzero;"/></g><g><path d="M111.076,198.622l4.104,94.962l-14.773,77.469l28.314,0l17.686,-75.678c0.78,-3.373 1.067,-6.872 0.821,-10.329l-5.786,-84.3l-30.366,-2.124Z" style="fill:#fafbfd;fill-rule:nonzero;stroke:#1b355f;stroke-width:0.5px;"/><path d="M129.378,371.886l-29.955,0l14.936,-78.343l-4.144,-95.795l32.007,2.207l5.827,85.049c0.246,3.541 -0.041,7.123 -0.862,10.579l-17.809,76.303Zm-27.986,-1.666l26.673,0l17.522,-75.053c0.779,-3.29 1.026,-6.706 0.82,-10.079l-5.745,-83.592l-28.724,-1.957l4.063,94.129l0,0.083l-14.609,76.469Z" style="fill:#1b355f;fill-rule:nonzero;"/></g><g><path d="M89.738,195.29l-17.234,79.552l-36.931,92.879l25.441,0.417l43.292,-80.218c0.944,-1.749 1.764,-3.582 2.462,-5.498l30.16,-84.216l-47.19,-2.916Z" style="fill:#fafbfd;fill-rule:nonzero;stroke:#1b355f;stroke-width:0.5px;"/><path d="M61.507,368.971l-27.124,-0.458l37.341,-93.921l17.358,-80.176l48.995,3.04l-30.53,85.258c-0.697,1.916 -1.518,3.79 -2.503,5.581l-43.537,80.676Zm-24.744,-2.083l23.759,0.375l43.045,-79.801c0.944,-1.708 1.724,-3.541 2.38,-5.373l29.791,-83.175l-45.384,-2.791l-17.112,78.927l-0.041,0.083l-36.438,91.755Z" style="fill:#1b355f;fill-rule:nonzero;"/></g><path d="M124.575,101.314c0,0 -2.711,14.007 -19.881,1.355l-12.787,4.067c-4.564,1.446 -8.405,4.609 -10.664,8.811l-16.764,30.952l18.074,10.844l9.489,-15.363l-9.489,65.067c0,0 16.719,12.2 34.115,8.63c9.399,-1.943 30.093,0 30.093,0c-1.807,-6.777 -0.627,-44.71 0,-58.334c0.374,-8.118 2.214,-23.948 2.214,-23.948l14.912,11.296l7.229,-20.785l-24.355,-17.758c-2.711,-1.988 -5.874,-3.208 -9.217,-3.524l-12.969,-1.31Z" style="fill:#1b355f;fill-rule:nonzero;stroke:#1b355f;stroke-width:1.5px;"/></g><g id="Floor_8_"><path d="M22.595,390.035l629.147,0" style="fill:none;fill-rule:nonzero;"/><rect x="22.595" y="389.146" width="629.147" height="1.777"/></g></g><g><g id="Chaur"><g><rect x="526.637" y="302.727" width="11.996" height="77.755" style="fill:#fafbfd;"/><path d="M539.523,381.37l-13.774,0l0,-79.532l13.774,0l0,79.532Zm-11.997,-1.777l10.219,0l0,-75.977l-10.219,0l0,75.977Z" style="fill:#1b355f;fill-rule:nonzero;"/></g><rect x="517.751" y="290.731" width="30.213" height="16.44" style="fill:#1b355f;"/><rect x="510.42" y="376.261" width="44.431" height="13.329" style="fill:#1b355f;"/><g><path d="M485.672,295.618l88.107,0c3.866,0 7.242,-2.666 8.131,-6.398l26.17,-108.146c1.289,-5.243 -2.71,-10.308 -8.086,-10.308l-61.804,0c-3.688,0 -6.976,2.444 -7.998,5.998l-28.436,97.083l-24.437,0l0,13.418c0,4.621 3.732,8.353 8.353,8.353Z" style="fill:#fafbfd;fill-rule:nonzero;"/><path d="M573.823,296.507l-88.107,0c-5.109,0 -9.242,-4.132 -9.242,-9.242l0,-14.307l24.66,0l28.258,-96.46c1.155,-3.91 4.799,-6.621 8.842,-6.621l61.804,0c2.844,0 5.509,1.289 7.242,3.511c1.733,2.221 2.4,5.109 1.733,7.864l-26.17,108.146c-1.066,4.176 -4.754,7.109 -9.02,7.109Zm-95.616,-21.772l0,12.53c0,4.132 3.377,7.464 7.465,7.464l88.107,0c3.466,0 6.443,-2.354 7.287,-5.731l26.17,-108.146c0.533,-2.222 0.044,-4.532 -1.378,-6.354c-1.421,-1.821 -3.554,-2.843 -5.864,-2.843l-61.804,0c-3.288,0 -6.221,2.221 -7.154,5.331l-28.658,97.749l-24.171,0Z" style="fill:#1b355f;fill-rule:nonzero;"/></g></g><g id="Man_9_"><path d="M492.47,150.017c10.957,-4.519 18.804,-18.088 12.189,-27.659c-5.091,-7.367 -16.932,-5.413 -21.483,-15.351c-5.093,0.091 -10.016,5.35 -10.3,9.775c0,0 -1.289,5.554 5.553,8.931l14.041,24.304Z" style="fill:#1b355f;fill-rule:nonzero;"/><g><path d="M498.468,170.588l-5.554,-23.548c0,0 10.219,-6.398 2.977,-10.664c0,0 -2.577,0 -3.821,1.689c0,0 1.688,-9.82 -5.11,-10.22c-6.842,-0.444 -9.819,-4.709 -9.819,-4.709c0,0 -15.329,24.304 -7.242,28.569c8.086,4.265 8.53,2.133 8.53,2.133l-2.132,17.595l22.171,-0.845Z" style="fill:#fafbfd;fill-rule:nonzero;"/><path d="M475.275,172.41l2.088,-17.106c-1.644,0.089 -4.221,-0.844 -7.864,-2.755c-1.289,-0.666 -2.133,-1.777 -2.577,-3.332c-2.133,-7.998 8.975,-25.726 9.464,-26.481l0.711,-1.111l0.755,1.111c0.133,0.178 2.843,3.91 9.153,4.31c1.866,0.133 3.332,0.844 4.354,2.177c1.6,2.044 1.822,4.976 1.777,6.976c1.333,-0.623 2.666,-0.667 2.755,-0.667l0.222,0l0.222,0.133c2,1.156 3.022,2.622 3.022,4.355c0.044,3.376 -3.91,6.442 -5.465,7.464l5.642,23.993l-24.259,0.933Zm-4.976,-21.46c3.148,1.97 6.848,2.706 7.242,2.754l1.733,0.267l-2,16.573l20.039,-0.755l-5.421,-23.105l0.533,-0.355c1.467,-0.889 5.199,-3.821 5.154,-6.309c0,-1.022 -0.666,-1.866 -1.955,-2.711c-0.577,0.045 -2.088,0.267 -2.888,1.333l-2.221,2.933l0.622,-3.644c0,-0.044 0.844,-5.065 -1.2,-7.686c-0.755,-0.933 -1.733,-1.422 -3.066,-1.511c-5.154,-0.311 -8.219,-2.71 -9.641,-4.088c-2.311,3.866 -10.308,17.817 -8.62,24.082c0.267,1.067 0.88,1.716 1.689,2.222Z" style="fill:#1b355f;fill-rule:nonzero;"/><path d="M491.408,136.438c0,0 -4.728,12.814 -11.152,8.277c-3.16,-2.233 -5.802,-3.454 -9.156,-2.826c-1.594,0.298 -2.234,-1.357 -2.234,-1.357c0,0 -11.133,17.093 -1.364,20.154c13.124,4.111 19.828,-8.75 21.774,-11.339c1.923,-2.559 1.478,-7.212 4.111,-12.909c0.58,-1.257 0.122,-0.561 -1.979,0Z" style="fill:#1b355f;"/></g><g><path d="M432.043,364.042l-1.777,16.618l17.328,0l1.777,-16.618l-17.328,0Z" style="fill:#fafbfd;fill-rule:nonzero;"/><path d="M448.394,381.548l-19.106,0l1.955,-18.394l19.106,0l-1.955,18.394Zm-17.151,-1.777l15.551,0l1.6,-14.84l-15.551,0l-1.6,14.84Z" style="fill-rule:nonzero;"/></g><path d="M448.038,375.239c0,0 -9.419,7.153 -17.328,0l-23.459,12.219c-1.022,0.533 -0.667,2.088 0.533,2.088l41.454,0c1.289,0 2.266,-1.244 1.911,-2.488l-3.111,-11.819Z" style="fill:#15243d;fill-rule:nonzero;"/><g><path d="M392.766,285.266l-11.241,12.351l13.951,10.264l11.241,-12.352l-13.951,-10.263Z" style="fill:#fafbfd;fill-rule:nonzero;"/><path d="M395.565,309.081l-15.373,-11.33l12.485,-13.641l15.373,11.33l-12.485,13.641Zm-12.707,-11.597l12.529,9.197l10.042,-11.019l-12.53,-9.197l-10.041,11.019Z" style="fill-rule:nonzero;"/></g><path d="M399.031,303.749c0,0 -11.819,0.178 -13.952,-10.264l-26.125,-4.043c-1.156,-0.178 -1.778,1.289 -0.845,2l33.368,24.526c1.067,0.755 2.533,0.355 3.022,-0.889l4.532,-11.33Z" style="fill:#1b355f;fill-rule:nonzero;"/><path d="M423.379,365.953c0.444,-0.889 22.082,-116.632 22.082,-116.632l86.064,28.036l-61.315,2.71l-15.729,86.019l-31.102,-0.133Z" style="fill:#15243d;fill-rule:nonzero;"/><path d="M535.079,213.864c0,0 24.438,34.657 18.217,49.319c-6.22,14.663 -17.328,15.107 -26.659,13.33l-79.754,-17.995l-35.989,53.762l-20.883,-25.326l46.431,-60.204l60.426,0l-1.332,-9.775l39.543,-3.111Z" style="fill:#1b355f;fill-rule:nonzero;"/><g><path d="M518.284,161.88l22.571,36.433l-15.106,5.332l18.217,27.103c0,0 -75.534,0.445 -75.978,0c-0.4,-0.4 -6.087,-41.765 -2.577,-60.16c0.622,-3.332 3.021,-6.042 6.22,-7.153l5.732,-1.999c0,0 -4.487,7.997 3.955,7.997c5.953,0 9.774,-3.999 13.773,-6.665c4.132,-2.754 15.462,-4.354 18.572,-3.865c1.867,0.267 3.555,1.333 4.621,2.977Z" style="fill:#fafbfd;fill-rule:nonzero;"/><path d="M487.893,231.815l-7.82,0c-12.263,-0.045 -12.307,-0.089 -12.662,-0.445c-0.223,-0.222 -0.4,-0.399 -1.333,-7.509c-0.356,-2.976 -1.111,-9.063 -1.689,-16.395c-0.933,-11.552 -1.688,-27.325 0.178,-37.055c0.666,-3.599 3.288,-6.621 6.798,-7.82l6.798,-2.755l0,2.044c-0.533,0.933 -1.644,3.643 -0.711,5.243c0.578,0.977 1.866,1.422 3.91,1.422c4.443,0 7.642,-2.4 10.752,-4.71c0.845,-0.622 1.689,-1.244 2.533,-1.822c4.31,-2.888 15.817,-4.532 19.194,-4.043c2.177,0.311 4.088,1.555 5.243,3.377l23.149,37.366l-15.062,5.332l18.483,27.548l-1.644,0c-0.178,0 -19.105,0.133 -37.811,0.177c-7.065,0.045 -13.196,0.045 -18.306,0.045Zm-19.194,-1.866c5.687,0.266 53.051,0.044 73.623,-0.045l-17.951,-26.659l15.152,-5.331l-21.994,-35.501c-0.889,-1.422 -2.355,-2.355 -3.999,-2.577c-3.11,-0.444 -14.173,1.2 -17.95,3.732c-0.8,0.533 -1.6,1.155 -2.444,1.777c-3.199,2.355 -6.798,5.066 -11.818,5.066c-2.711,0 -4.532,-0.8 -5.466,-2.311c-0.933,-1.599 -0.577,-3.599 -0.133,-5.065l-3.821,1.333c-2.888,1.022 -5.065,3.51 -5.598,6.487c-3.288,16.884 1.377,53.984 2.399,59.094Z" style="fill:#1b355f;fill-rule:nonzero;"/></g><g><path d="M537.79,193.337l14.084,21.149c2.133,3.155 -0.177,7.421 -3.954,7.421l-40.877,0c0,0 -4.887,-2.222 -3.999,-7.109c0,0 -4.443,1.332 -6.664,0.888c-2.222,-0.444 -6.221,-2.221 -5.332,-4.887c0.711,-2.133 6.665,-4.443 6.665,-4.443l4.532,-1.511c1.555,-0.178 3.11,0.578 3.91,1.955l5.331,8.442l19.994,-1.777l-7.109,-11.997l13.419,-8.131Z" style="fill:#fafbfd;fill-rule:nonzero;"/><path d="M547.92,222.751l-41.054,0l-0.178,-0.089c-1.689,-0.755 -4.621,-3.11 -4.621,-6.709c-1.555,0.4 -4.177,0.888 -5.865,0.577c-1.6,-0.311 -4.576,-1.377 -5.732,-3.376c-0.488,-0.845 -0.577,-1.778 -0.266,-2.666c0.8,-2.444 6.131,-4.577 7.198,-4.977l4.754,-1.555c1.91,-0.222 3.776,0.711 4.798,2.4l5.021,7.953l18.039,-1.6l-6.842,-11.552l14.884,-8.975l14.574,21.816c1.155,1.777 1.288,3.954 0.266,5.82c-0.977,1.822 -2.843,2.933 -4.976,2.933Zm-40.655,-1.778l40.655,0c1.466,0 2.71,-0.755 3.421,-2.043c0.667,-1.289 0.622,-2.755 -0.177,-3.999l-13.641,-20.439l-11.907,7.198l7.375,12.441l-21.949,1.955l-5.643,-8.886c-0.622,-1.067 -1.777,-1.644 -2.977,-1.555l-4.398,1.466c-2.311,0.889 -5.732,2.666 -6.132,3.865c-0.133,0.445 -0.089,0.8 0.133,1.2c0.667,1.2 2.844,2.177 4.532,2.533c1.644,0.311 5.066,-0.534 6.221,-0.889l1.377,-0.4l-0.266,1.422c-0.622,3.777 2.621,5.732 3.376,6.131Z" style="fill:#1b355f;fill-rule:nonzero;"/></g></g><g id="Laptop_2_"><path d="M406.14,176.231l58.471,0c1.467,0 2.755,0.889 3.244,2.266l16.173,44.254l-65.803,0l-15.329,-41.899c-0.844,-2.266 0.844,-4.621 3.244,-4.621Z" style="fill:#1b355f;fill-rule:nonzero;"/><rect x="474.297" y="218.219" width="40.344" height="4.532" style="fill:#1b355f;"/><path d="M402.319,176.231l58.471,0c1.466,0 2.755,0.889 3.244,2.266l16.173,44.254l-65.803,0l-15.329,-41.899c-0.8,-2.266 0.844,-4.621 3.244,-4.621Z" style="fill:#94a9c7;fill-rule:nonzero;"/><path d="M434.742,194.737c2.034,-0.976 4.728,0.403 6.012,3.078c1.284,2.675 0.676,5.639 -1.358,6.616c-2.034,0.976 -4.728,-0.403 -6.012,-3.078c-1.284,-2.675 -0.675,-5.639 1.358,-6.616Z" style="fill:#1b355f;"/></g><g id="Table_2_"><g><rect x="453.104" y="229.193" width="11.952" height="159.508" style="fill:#fafbfd;"/><path d="M465.944,389.59l-13.729,0l0,-161.285l13.729,0l0,161.285Zm-11.952,-1.777l10.175,0l0,-157.731l-10.175,0l0,157.731Z" style="fill:#1b355f;fill-rule:nonzero;"/></g><g><rect x="340.47" y="221.862" width="238.152" height="11.552" style="fill:#fafbfd;"/><path d="M579.511,234.303l-239.929,0l0,-13.33l239.929,0l0,13.33Zm-238.152,-1.777l236.374,0l0,-9.775l-236.374,0l0,9.775Z" style="fill:#1b355f;fill-rule:nonzero;"/></g><path d="M481.095,389.59l-44.431,0c0,-7.375 5.954,-13.329 13.329,-13.329l17.773,0c7.331,0 13.329,5.954 13.329,13.329Z" style="fill:#15243d;fill-rule:nonzero;"/></g></g><g><circle cx="267.396" cy="82.149" r="20.447" style="fill:#004dff;"/><path d="M263.332,92.701l-7.117,-10.176c-0.466,-0.665 -0.3,-1.597 0.366,-2.095c0.665,-0.466 1.596,-0.3 2.095,0.365l5.121,7.317l12.638,-12.072c0.598,-0.566 1.53,-0.566 2.128,0.033c0.566,0.599 0.566,1.53 -0.033,2.128l-15.198,14.5Z" style="fill:#fff;fill-rule:nonzero;"/><circle cx="348.767" cy="82.149" r="20.447" style="fill:none;stroke:#1b355f;stroke-width:1.5px;stroke-linecap:round;stroke-miterlimit:1.5;"/><circle cx="429.381" cy="82.149" r="20.447" style="fill:none;stroke:#1b355f;stroke-width:1.5px;stroke-linecap:round;stroke-miterlimit:1.5;"/><path d="M287.662,81.774l40.385,0" style="fill:none;stroke:#1b355f;stroke-width:1.5px;stroke-linecap:round;stroke-miterlimit:1.5;"/><text x="339.649px" y="92.231px" style="font-family:'Nunito-Regular', 'Nunito';font-size:28.857px;fill:#1b355f;">2</text><text x="420.263px" y="92.287px" style="font-family:'Nunito-Regular', 'Nunito';font-size:28.857px;fill:#1b355f;">3</text><path d="M369.611,81.774l38.617,0" style="fill:none;stroke:#1b355f;stroke-width:1.5px;stroke-linecap:round;stroke-miterlimit:1.5;"/></g><g><path d="M174.388,196.803l0,45.728c0,4.699 3.798,8.559 8.514,8.559l133.666,0c4.674,0 8.513,-3.818 8.513,-8.559l0,-45.728c0,-4.698 -3.798,-8.558 -8.513,-8.558l-133.666,0c-4.716,0.042 -8.514,3.86 -8.514,8.558Z" style="fill:#fff;fill-rule:nonzero;"/><path d="M316.526,251.929l-133.624,0c-5.133,0 -9.348,-4.196 -9.348,-9.398l0,-45.728c0,-5.16 4.173,-9.397 9.348,-9.397l133.666,0c5.133,0 9.348,4.195 9.348,9.397l0,45.728c-0.042,5.202 -4.215,9.398 -9.39,9.398Zm-133.624,-62.803c-4.215,0 -7.679,3.44 -7.679,7.719l0,45.728c0,4.238 3.422,7.72 7.679,7.72l133.666,0c4.215,0 7.678,-3.441 7.678,-7.72l0,-45.728c0,-4.237 -3.422,-7.719 -7.678,-7.719l-133.666,0Z" style="fill-rule:nonzero;"/></g><g id="Clock_1_"><circle cx="588.352" cy="75.198" r="24.693" style="fill:#94a9c7;"/><circle cx="585.352" cy="69.198" r="24.693" style="fill:#fff;stroke:#1b355f;stroke-width:3.5px;stroke-linecap:round;stroke-miterlimit:1.5;"/><g><path d="M585.352,44.353l0,2.846" style="fill:none;stroke:#1b355f;stroke-width:2px;stroke-linecap:round;stroke-miterlimit:1.5;"/><path d="M585.352,90.879l0,2.847" style="fill:none;stroke:#1b355f;stroke-width:2px;stroke-linecap:round;stroke-miterlimit:1.5;"/></g><g><path d="M610.038,69.039l-2.846,0" style="fill:none;stroke:#1b355f;stroke-width:2px;stroke-linecap:round;stroke-miterlimit:1.5;"/><path d="M563.512,69.039l-2.846,0" style="fill:none;stroke:#1b355f;stroke-width:2px;stroke-linecap:round;stroke-miterlimit:1.5;"/></g><g><path d="M606.731,56.696l-2.465,1.423" style="fill:none;stroke:#1b355f;stroke-width:1px;stroke-linecap:round;stroke-miterlimit:1.5;"/><path d="M566.438,79.959l-2.465,1.423" style="fill:none;stroke:#1b355f;stroke-width:1px;stroke-linecap:round;stroke-miterlimit:1.5;"/><path d="M597.695,47.66l-1.423,2.465" style="fill:none;stroke:#1b355f;stroke-width:1px;stroke-linecap:round;stroke-miterlimit:1.5;"/><path d="M574.432,87.953l-1.423,2.465" style="fill:none;stroke:#1b355f;stroke-width:1px;stroke-linecap:round;stroke-miterlimit:1.5;"/><path d="M597.695,90.418l-1.423,-2.465" style="fill:none;stroke:#1b355f;stroke-width:1px;stroke-linecap:round;stroke-miterlimit:1.5;"/><path d="M574.432,50.125l-1.423,-2.465" style="fill:none;stroke:#1b355f;stroke-width:1px;stroke-linecap:round;stroke-miterlimit:1.5;"/><path d="M606.731,81.382l-2.465,-1.423" style="fill:none;stroke:#1b355f;stroke-width:1px;stroke-linecap:round;stroke-miterlimit:1.5;"/><path d="M566.438,58.119l-2.465,-1.423" style="fill:none;stroke:#1b355f;stroke-width:1px;stroke-linecap:round;stroke-miterlimit:1.5;"/></g><path d="M585.313,46.788l0,23.889l7.185,-12.43" style="fill:none;stroke:#1b355f;stroke-width:2px;stroke-linecap:square;stroke-linejoin:miter;stroke-miterlimit:1.5;"/><g><rect x="192.493" y="201.975" width="36.244" height="34.496" style="fill:#fff;stroke:#1b355f;stroke-width:1.5px;stroke-linecap:square;stroke-linejoin:miter;stroke-miterlimit:1.5;"/><rect x="190.183" y="198.872" width="5.93" height="5.93" style="fill:#1b355f;stroke:#1b355f;stroke-width:1.5px;stroke-linecap:square;stroke-linejoin:miter;stroke-miterlimit:1.5;"/><rect x="225.244" y="198.872" width="5.93" height="5.93" style="fill:#1b355f;stroke:#1b355f;stroke-width:1.5px;stroke-linecap:square;stroke-linejoin:miter;stroke-miterlimit:1.5;"/><rect x="225.244" y="233.031" width="5.93" height="5.93" style="fill:#1b355f;stroke:#1b355f;stroke-width:1.5px;stroke-linecap:square;stroke-linejoin:miter;stroke-miterlimit:1.5;"/><rect x="189.387" y="233.031" width="5.93" height="5.93" style="fill:#1b355f;stroke:#1b355f;stroke-width:1.5px;stroke-linecap:square;stroke-linejoin:miter;stroke-miterlimit:1.5;"/><g><path d="M200.409,214.189l0,-5.632l19.219,0l0,5.632" style="fill:none;stroke:#1b355f;stroke-width:2px;stroke-linecap:square;stroke-linejoin:miter;stroke-miterlimit:1.5;"/><path d="M209.943,208.539l0,20.011" style="fill:none;stroke:#1b355f;stroke-width:2px;stroke-linecap:square;stroke-linejoin:miter;stroke-miterlimit:1.5;"/><path d="M204.652,228.992l10.264,0" style="fill:none;stroke:#1b355f;stroke-width:2px;stroke-linecap:square;stroke-linejoin:miter;stroke-miterlimit:1.5;"/></g></g><path d="M307.341,201.023c0,-1.474 -1.196,-2.67 -2.669,-2.67l-51.444,0c-1.473,0 -2.669,1.196 -2.669,2.67l0,31.23c0,1.473 1.196,2.669 2.669,2.669l51.444,0c1.473,0 2.669,-1.196 2.669,-2.669l0,-31.23Z" style="fill:#fff;stroke:#1b355f;stroke-width:1.5px;stroke-linecap:square;stroke-linejoin:miter;stroke-miterlimit:1.5;stroke-dasharray:1.5,4.5,1.5,4.5;"/><g><path d="M316.141,182.808c0,-1.684 -1.368,-3.052 -3.052,-3.052l-46.819,0c-1.685,0 -3.053,1.368 -3.053,3.052l0,35.713c0,1.685 1.368,3.053 3.053,3.053l46.819,0c1.684,0 3.052,-1.368 3.052,-3.053l0,-35.713Z" style="fill:#fff;stroke:#1b355f;stroke-width:1.5px;stroke-linecap:square;stroke-linejoin:miter;stroke-miterlimit:1.5;"/><path d="M263.699,204.514c0,0 14.425,-9.78 17.543,-9.639c2.179,0.099 18.723,12.487 22.633,12.433c3.006,-0.042 11.965,-5.518 11.965,-5.518" style="fill:none;stroke:#1b355f;stroke-width:1.5px;stroke-linecap:square;stroke-linejoin:miter;stroke-miterlimit:1.5;"/><ellipse cx="301.458" cy="191.395" rx="5.411" ry="5.364" style="fill:none;stroke:#1b355f;stroke-width:1.5px;stroke-linecap:square;stroke-linejoin:miter;stroke-miterlimit:1.5;"/></g></g><g><path d="M384.676,143.012c0,-1.081 -0.878,-1.959 -1.96,-1.959l-63.232,0c-1.081,0 -1.96,0.878 -1.96,1.959c0,1.082 0.879,1.96 1.96,1.96l63.232,0c1.082,0 1.96,-0.878 1.96,-1.96Z" style="fill:#94a9c7;"/><path d="M346.21,132.38c0,-1.078 -0.875,-1.953 -1.953,-1.953l-23.857,0c-1.078,0 -1.953,0.875 -1.953,1.953c0,1.078 0.875,1.953 1.953,1.953l23.857,0c1.078,0 1.953,-0.875 1.953,-1.953Z" style="fill:#1b355f;"/><path d="M435.281,143.012c0,-1.081 -0.878,-1.959 -1.96,-1.959l-41.635,0c-1.082,0 -1.96,0.878 -1.96,1.959c0,1.082 0.878,1.96 1.96,1.96l41.635,0c1.082,0 1.96,-0.878 1.96,-1.96Z" style="fill:#004dff;"/><path d="M362.924,153.343c0,-1.123 -0.912,-2.035 -2.036,-2.035l-41.484,0c-1.123,0 -2.035,0.912 -2.035,2.035c0,1.123 0.912,2.035 2.035,2.035l41.484,0c1.124,0 2.036,-0.912 2.036,-2.035Z" style="fill:#94a9c7;"/><path d="M255.923,136.706l-13.164,7.975l13.164,8.181" style="fill:none;stroke:#94a9c7;stroke-width:3.5px;stroke-linecap:round;stroke-miterlimit:1.5;"/><path d="M278.179,136.706l13.164,7.975l-13.164,8.181" style="fill:none;stroke:#94a9c7;stroke-width:3.5px;stroke-linecap:round;stroke-miterlimit:1.5;"/><path d="M270.507,131.248l-6.754,26.261" style="fill:none;stroke:#94a9c7;stroke-width:3.5px;stroke-linecap:round;stroke-miterlimit:1.5;"/><path d="M415.344,153.343c0,-1.123 -0.912,-2.035 -2.035,-2.035l-41.485,0c-1.123,0 -2.035,0.912 -2.035,2.035c0,1.123 0.912,2.035 2.035,2.035l41.485,0c1.123,0 2.035,-0.912 2.035,-2.035Z" style="fill:#94a9c7;"/><path d="M434.202,153.343c0,-1.123 -0.912,-2.035 -2.035,-2.035l-11.39,0c-1.124,0 -2.035,0.912 -2.035,2.035c0,1.123 0.911,2.035 2.035,2.035l11.39,0c1.123,0 2.035,-0.912 2.035,-2.035Z" style="fill:#94a9c7;"/><path d="M436.758,132.204c0,-1.077 -0.875,-1.953 -1.953,-1.953l-80.108,0c-1.078,0 -1.953,0.876 -1.953,1.953c0,1.078 0.875,1.953 1.953,1.953l80.108,0c1.078,0 1.953,-0.875 1.953,-1.953Z" style="fill:#94a9c7;"/></g><path d="M313.869,233.645l0,26.635l6.919,-5.542l3.827,8.646l4.832,-1.892l-4.01,-8.627l7.09,0l-18.658,-19.22Z" style="fill:#fff;stroke:#1b355f;stroke-width:1.5px;stroke-linecap:round;stroke-miterlimit:1.5;"/></g></svg>